<?xml version="1.0" encoding="UTF-8" standalone="no"?>
<!-- Created with Inkscape (http://www.inkscape.org/) -->

<svg
   xmlns:dc="http://purl.org/dc/elements/1.1/"
   xmlns:cc="http://creativecommons.org/ns#"
   xmlns:rdf="http://www.w3.org/1999/02/22-rdf-syntax-ns#"
   xmlns:svg="http://www.w3.org/2000/svg"
   xmlns="http://www.w3.org/2000/svg"
   xmlns:sodipodi="http://sodipodi.sourceforge.net/DTD/sodipodi-0.dtd"
   xmlns:inkscape="http://www.inkscape.org/namespaces/inkscape"
   width="64px"
   height="64px"
   id="svg3953"
   version="1.1"
   inkscape:version="0.91 r13725"
   sodipodi:docname="wikitolearn-logo.svg"
   inkscape:export-filename="/home/dario/git-project/wtl-design/Logo/W2L Logo/wikitolearn-logo.svg.png"
   inkscape:export-xdpi="716.70001"
   inkscape:export-ydpi="716.70001">
  <defs
     id="defs3955" />
  <sodipodi:namedview
     id="base"
     pagecolor="#ffffff"
     bordercolor="#666666"
     borderopacity="1.0"
     inkscape:pageopacity="0.0"
     inkscape:pageshadow="2"
     inkscape:zoom="5.5"
     inkscape:cx="12.903967"
     inkscape:cy="27.724032"
     inkscape:current-layer="layer1"
     showgrid="true"
     inkscape:document-units="px"
     inkscape:grid-bbox="true"
     inkscape:window-width="1920"
     inkscape:window-height="1006"
     inkscape:window-x="0"
     inkscape:window-y="45"
     inkscape:window-maximized="1" />
  <metadata
     id="metadata3958">
    <rdf:RDF>
      <cc:Work
         rdf:about="">
        <dc:format>image/svg+xml</dc:format>
        <dc:type
           rdf:resource="http://purl.org/dc/dcmitype/StillImage" />
        <dc:title></dc:title>
      </cc:Work>
    </rdf:RDF>
  </metadata>
  <g
     id="layer1"
     inkscape:label="Layer 1"
     inkscape:groupmode="layer">
    <path
       sodipodi:type="arc"
       style="color:#000000;fill:#ffbc31;fill-opacity:1;fill-rule:nonzero;stroke:none;stroke-width:1px;marker:none;visibility:visible;display:inline;overflow:visible;enable-background:accumulate"
       id="path3880"
       sodipodi:cx="376.20291"
       sodipodi:cy="497.17288"
       sodipodi:rx="54.137863"
       sodipodi:ry="54.137863"
       d="m 430.34077,497.17288 a 54.137863,54.137863 0 1 1 -108.27572,0 54.137863,54.137863 0 1 1 108.27572,0 z"
       transform="matrix(0.12109331,0,0,0.12109331,-13.265786,-28.37566)" />
    <path
       transform="matrix(0.08332659,0,0,0.08332659,16.16315,-9.5666113)"
       d="m 430.34077,497.17288 a 54.137863,54.137863 0 1 1 -108.27572,0 54.137863,54.137863 0 1 1 108.27572,0 z"
       sodipodi:ry="54.137863"
       sodipodi:rx="54.137863"
       sodipodi:cy="497.17288"
       sodipodi:cx="376.20291"
       id="path3882"
       style="color:#000000;fill:#ffbc31;fill-opacity:1;fill-rule:nonzero;stroke:none;stroke-width:1px;marker:none;visibility:visible;display:inline;overflow:visible;enable-background:accumulate"
       sodipodi:type="arc" />
    <path
       sodipodi:type="arc"
       style="color:#000000;fill:#ffbc31;fill-opacity:1;fill-rule:nonzero;stroke:none;stroke-width:1px;marker:none;visibility:visible;display:inline;overflow:visible;enable-background:accumulate"
       id="path3884"
       sodipodi:cx="376.20291"
       sodipodi:cy="497.17288"
       sodipodi:rx="54.137863"
       sodipodi:ry="54.137863"
       d="m 430.34077,497.17288 a 54.137863,54.137863 0 1 1 -108.27572,0 54.137863,54.137863 0 1 1 108.27572,0 z"
       transform="matrix(0.08332659,0,0,0.08332659,-14.084095,-9.5666113)" />
    <path
       transform="matrix(0.08332659,0,0,0.08332659,1.0395274,-23.521885)"
       d="m 430.34077,497.17288 a 54.137863,54.137863 0 1 1 -108.27572,0 54.137863,54.137863 0 1 1 108.27572,0 z"
       sodipodi:ry="54.137863"
       sodipodi:rx="54.137863"
       sodipodi:cy="497.17288"
       sodipodi:cx="376.20291"
       id="path3886"
       style="color:#000000;fill:#db3e14;fill-opacity:1;fill-rule:nonzero;stroke:none;stroke-width:1px;marker:none;visibility:visible;display:inline;overflow:visible;enable-background:accumulate"
       sodipodi:type="arc" />
    <path
       sodipodi:type="arc"
       style="color:#000000;fill:#6ab141;fill-opacity:1;fill-rule:nonzero;stroke:none;stroke-width:1px;marker:none;visibility:visible;display:inline;overflow:visible;enable-background:accumulate"
       id="path3888"
       sodipodi:cx="376.20291"
       sodipodi:cy="497.17288"
       sodipodi:rx="54.137863"
       sodipodi:ry="54.137863"
       d="m 430.34077,497.17288 a 54.137863,54.137863 0 1 1 -108.27572,0 54.137863,54.137863 0 1 1 108.27572,0 z"
       transform="matrix(0.08332659,0,0,0.08332659,1.0395274,4.648296)" />
    <path
       transform="matrix(0.05958871,0,0,0.05958871,23.073397,14.820776)"
       d="m 430.34077,497.17288 a 54.137863,54.137863 0 1 1 -108.27572,0 54.137863,54.137863 0 1 1 108.27572,0 z"
       sodipodi:ry="54.137863"
       sodipodi:rx="54.137863"
       sodipodi:cy="497.17288"
       sodipodi:cx="376.20291"
       id="path3890"
       style="color:#000000;fill:#6ab141;fill-opacity:1;fill-rule:nonzero;stroke:none;stroke-width:1px;marker:none;visibility:visible;display:inline;overflow:visible;enable-background:accumulate"
       sodipodi:type="arc" />
    <path
       sodipodi:type="arc"
       style="color:#000000;fill:#db3e14;fill-opacity:1;fill-rule:nonzero;stroke:none;stroke-width:1px;marker:none;visibility:visible;display:inline;overflow:visible;enable-background:accumulate"
       id="path3892"
       sodipodi:cx="376.20291"
       sodipodi:cy="497.17288"
       sodipodi:rx="54.137863"
       sodipodi:ry="54.137863"
       d="m 430.34077,497.17288 a 54.137863,54.137863 0 1 1 -108.27572,0 54.137863,54.137863 0 1 1 108.27572,0 z"
       transform="matrix(0.05958871,0,0,0.05958871,23.073397,-9.7800509)" />
    <path
       transform="matrix(0.05958871,0,0,0.05958871,-3.2715184,-9.7800509)"
       d="m 430.34077,497.17288 a 54.137863,54.137863 0 1 1 -108.27572,0 54.137863,54.137863 0 1 1 108.27572,0 z"
       sodipodi:ry="54.137863"
       sodipodi:rx="54.137863"
       sodipodi:cy="497.17288"
       sodipodi:cx="376.20291"
       id="path3894"
       style="color:#000000;fill:#db3e14;fill-opacity:1;fill-rule:nonzero;stroke:none;stroke-width:1px;marker:none;visibility:visible;display:inline;overflow:visible;enable-background:accumulate"
       sodipodi:type="arc" />
    <path
       sodipodi:type="arc"
       style="color:#000000;fill:#6ab141;fill-opacity:1;fill-rule:nonzero;stroke:none;stroke-width:1px;marker:none;visibility:visible;display:inline;overflow:visible;enable-background:accumulate"
       id="path3896"
       sodipodi:cx="376.20291"
       sodipodi:cy="497.17288"
       sodipodi:rx="54.137863"
       sodipodi:ry="54.137863"
       d="m 430.34077,497.17288 a 54.137863,54.137863 0 1 1 -108.27572,0 54.137863,54.137863 0 1 1 108.27572,0 z"
       transform="matrix(0.05958871,0,0,0.05958871,-3.2715184,14.912571)" />
    <path
       transform="matrix(0.05140182,0,0,0.05140182,-12.659834,6.234627)"
       d="m 430.34077,497.17288 a 54.137863,54.137863 0 1 1 -108.27572,0 54.137863,54.137863 0 1 1 108.27572,0 z"
       sodipodi:ry="54.137863"
       sodipodi:rx="54.137863"
       sodipodi:cy="497.17288"
       sodipodi:cx="376.20291"
       id="path3898"
       style="color:#000000;fill:#ffbc31;fill-opacity:1;fill-rule:nonzero;stroke:none;stroke-width:1px;marker:none;visibility:visible;display:inline;overflow:visible;enable-background:accumulate"
       sodipodi:type="arc" />
    <path
       sodipodi:type="arc"
       style="color:#000000;fill:#ffbc31;fill-opacity:1;fill-rule:nonzero;stroke:none;stroke-width:1px;marker:none;visibility:visible;display:inline;overflow:visible;enable-background:accumulate"
       id="path3900"
       sodipodi:cx="376.20291"
       sodipodi:cy="497.17288"
       sodipodi:rx="54.137863"
       sodipodi:ry="54.137863"
       d="m 430.34077,497.17288 a 54.137863,54.137863 0 1 1 -108.27572,0 54.137863,54.137863 0 1 1 108.27572,0 z"
       transform="matrix(0.05140182,0,0,0.05140182,38.653083,6.2575758)" />
    <path
       transform="matrix(0.05140182,0,0,0.05140182,12.981868,-19.186459)"
       d="m 430.34077,497.17288 a 54.137863,54.137863 0 1 1 -108.27572,0 54.137863,54.137863 0 1 1 108.27572,0 z"
       sodipodi:ry="54.137863"
       sodipodi:rx="54.137863"
       sodipodi:cy="497.17288"
       sodipodi:cx="376.20291"
       id="path3902"
       style="color:#000000;fill:#83001f;fill-opacity:1;fill-rule:nonzero;stroke:none;stroke-width:1px;marker:none;visibility:visible;display:inline;overflow:visible;enable-background:accumulate"
       sodipodi:type="arc" />
    <path
       sodipodi:type="arc"
       style="color:#000000;fill:#00613a;fill-opacity:1;fill-rule:nonzero;stroke:none;stroke-width:1px;marker:none;visibility:visible;display:inline;overflow:visible;enable-background:accumulate"
       id="path3904"
       sodipodi:cx="376.20291"
       sodipodi:cy="497.17288"
       sodipodi:rx="54.137863"
       sodipodi:ry="54.137863"
       d="m 430.34077,497.17288 a 54.137863,54.137863 0 1 1 -108.27572,0 54.137863,54.137863 0 1 1 108.27572,0 z"
       transform="matrix(0.05140182,0,0,0.05140182,12.981868,32.350694)" />
    <path
       transform="matrix(0.03125194,0,0,0.03125194,33.273013,39.65286)"
       d="m 430.34077,497.17288 a 54.137863,54.137863 0 1 1 -108.27572,0 54.137863,54.137863 0 1 1 108.27572,0 z"
       sodipodi:ry="54.137863"
       sodipodi:rx="54.137863"
       sodipodi:cy="497.17288"
       sodipodi:cx="376.20291"
       id="path3906"
       style="color:#000000;fill:#00613a;fill-opacity:1;fill-rule:nonzero;stroke:none;stroke-width:1px;marker:none;visibility:visible;display:inline;overflow:visible;enable-background:accumulate"
       sodipodi:type="arc" />
    <path
       sodipodi:type="arc"
       style="color:#000000;fill:#00613a;fill-opacity:1;fill-rule:nonzero;stroke:none;stroke-width:1px;marker:none;visibility:visible;display:inline;overflow:visible;enable-background:accumulate"
       id="path3908"
       sodipodi:cx="376.20291"
       sodipodi:cy="497.17288"
       sodipodi:rx="54.137863"
       sodipodi:ry="54.137863"
       d="m 430.34077,497.17288 a 54.137863,54.137863 0 1 1 -108.27572,0 54.137863,54.137863 0 1 1 108.27572,0 z"
       transform="matrix(0.03125194,0,0,0.03125194,44.388551,28.43996)" />
    <path
       transform="matrix(0.03125194,0,0,0.03125194,44.409869,5.2109534)"
       d="m 430.34077,497.17288 a 54.137863,54.137863 0 1 1 -108.27572,0 54.137863,54.137863 0 1 1 108.27572,0 z"
       sodipodi:ry="54.137863"
       sodipodi:rx="54.137863"
       sodipodi:cy="497.17288"
       sodipodi:cx="376.20291"
       id="path3910"
       style="color:#000000;fill:#83001f;fill-opacity:1;fill-rule:nonzero;stroke:none;stroke-width:1px;marker:none;visibility:visible;display:inline;overflow:visible;enable-background:accumulate"
       sodipodi:type="arc" />
    <path
       sodipodi:type="arc"
       style="color:#000000;fill:#83001f;fill-opacity:1;fill-rule:nonzero;stroke:none;stroke-width:1px;marker:none;visibility:visible;display:inline;overflow:visible;enable-background:accumulate"
       id="path3912"
       sodipodi:cx="376.20291"
       sodipodi:cy="497.17288"
       sodipodi:rx="54.137863"
       sodipodi:ry="54.137863"
       d="m 430.34077,497.17288 a 54.137863,54.137863 0 1 1 -108.27572,0 54.137863,54.137863 0 1 1 108.27572,0 z"
       transform="matrix(0.03125194,0,0,0.03125194,33.229422,-6.4563061)" />
    <path
       transform="matrix(0.03125194,0,0,0.03125194,7.9211239,-6.4563061)"
       d="m 430.34077,497.17288 a 54.137863,54.137863 0 1 1 -108.27572,0 54.137863,54.137863 0 1 1 108.27572,0 z"
       sodipodi:ry="54.137863"
       sodipodi:rx="54.137863"
       sodipodi:cy="497.17288"
       sodipodi:cx="376.20291"
       id="path3914"
       style="color:#000000;fill:#83001f;fill-opacity:1;fill-rule:nonzero;stroke:none;stroke-width:1px;marker:none;visibility:visible;display:inline;overflow:visible;enable-background:accumulate"
       sodipodi:type="arc" />
    <path
       sodipodi:type="arc"
       style="color:#000000;fill:#83001f;fill-opacity:1;fill-rule:nonzero;stroke:none;stroke-width:1px;marker:none;visibility:visible;display:inline;overflow:visible;enable-background:accumulate"
       id="path3916"
       sodipodi:cx="376.20291"
       sodipodi:cy="497.17288"
       sodipodi:rx="54.137863"
       sodipodi:ry="54.137863"
       d="m 430.34077,497.17288 a 54.137863,54.137863 0 1 1 -108.27572,0 54.137863,54.137863 0 1 1 108.27572,0 z"
       transform="matrix(0.03125194,0,0,0.03125194,-3.3242307,4.7728226)" />
    <path
       transform="matrix(0.03125194,0,0,0.03125194,-3.3514526,28.410903)"
       d="m 430.34077,497.17288 a 54.137863,54.137863 0 1 1 -108.27572,0 54.137863,54.137863 0 1 1 108.27572,0 z"
       sodipodi:ry="54.137863"
       sodipodi:rx="54.137863"
       sodipodi:cy="497.17288"
       sodipodi:cx="376.20291"
       id="path3918"
       style="color:#000000;fill:#00613a;fill-opacity:1;fill-rule:nonzero;stroke:none;stroke-width:1px;marker:none;visibility:visible;display:inline;overflow:visible;enable-background:accumulate"
       sodipodi:type="arc" />
    <path
       sodipodi:type="arc"
       style="color:#000000;fill:#00613a;fill-opacity:1;fill-rule:nonzero;stroke:none;stroke-width:1px;marker:none;visibility:visible;display:inline;overflow:visible;enable-background:accumulate"
       id="path3920"
       sodipodi:cx="376.20291"
       sodipodi:cy="497.17288"
       sodipodi:rx="54.137863"
       sodipodi:ry="54.137863"
       d="m 430.34077,497.17288 a 54.137863,54.137863 0 1 1 -108.27572,0 54.137863,54.137863 0 1 1 108.27572,0 z"
       transform="matrix(0.03125194,0,0,0.03125194,7.9392249,39.609784)" />
  </g>
</svg>
